<?xml version="1.0" encoding="UTF-8" standalone="no"?>
<!-- Created with Inkscape (http://www.inkscape.org/) -->

<svg
   xmlns:dc="http://purl.org/dc/elements/1.1/"
   xmlns:cc="http://creativecommons.org/ns#"
   xmlns:rdf="http://www.w3.org/1999/02/22-rdf-syntax-ns#"
   xmlns:svg="http://www.w3.org/2000/svg"
   xmlns="http://www.w3.org/2000/svg"
   xmlns:sodipodi="http://sodipodi.sourceforge.net/DTD/sodipodi-0.dtd"
   xmlns:inkscape="http://www.inkscape.org/namespaces/inkscape"
   width="72"
   height="72"
   viewBox="0 0 72.000001 72.000001"
   id="svg3405"
   version="1.1"
   inkscape:version="0.91 r13725"
   sodipodi:docname="Step1.svg"
   inkscape:export-filename="C:\Android_Dev\WheeledWalks\Custom Icons Inkscape\Step1.png"
   inkscape:export-xdpi="90"
   inkscape:export-ydpi="90">
  <defs
     id="defs3407" />
  <sodipodi:namedview
     id="base"
     pagecolor="#ffffff"
     bordercolor="#666666"
     borderopacity="1.0"
     inkscape:pageopacity="0.0"
     inkscape:pageshadow="2"
     inkscape:zoom="7.2407734"
     inkscape:cx="39.936531"
     inkscape:cy="36.693147"
     inkscape:document-units="px"
     inkscape:current-layer="layer1"
     showgrid="false"
     units="px"
     showborder="true"
     inkscape:window-width="1440"
     inkscape:window-height="838"
     inkscape:window-x="-8"
     inkscape:window-y="-8"
     inkscape:window-maximized="1" />
  <metadata
     id="metadata3410">
    <rdf:RDF>
      <cc:Work
         rdf:about="">
        <dc:format>image/svg+xml</dc:format>
        <dc:type
           rdf:resource="http://purl.org/dc/dcmitype/StillImage" />
        <dc:title></dc:title>
      </cc:Work>
    </rdf:RDF>
  </metadata>
  <g
     inkscape:label="Layer 1"
     inkscape:groupmode="layer"
     id="layer1"
     transform="translate(0,-980.36216)">
    <path
       style="fill:none;fill-opacity:1;stroke:none;stroke-width:3;stroke-miterlimit:4;stroke-dasharray:none"
       d="m 9.2531552,1032.3367 28.8643198,0 0,-14.3631 21.95898,0"
       id="path4225"
       inkscape:connector-curvature="0" />
    <path
       style="fill:none;fill-opacity:1;stroke:#000000;stroke-width:4;stroke-miterlimit:4;stroke-dasharray:none;stroke-opacity:1;stroke-linejoin:round;stroke-linecap:round"
       d="m 10.081796,1032.1986 26.102184,0 0,-15.6061 24.030582,0"
       id="path4229"
       inkscape:connector-curvature="0" />
    <path
       style="fill:none;fill-opacity:1;stroke:#000000;stroke-width:2;stroke-linecap:round;stroke-linejoin:round;stroke-miterlimit:4;stroke-dasharray:none;stroke-opacity:1"
       d="m 20.025485,1037.9991 16.020388,12.4296 15.606068,-12.5678"
       id="path4231"
       inkscape:connector-curvature="0" />
    <path
       style="fill:#ff6600;fill-opacity:1;stroke:#000000;stroke-width:0.27621359;stroke-linecap:round;stroke-linejoin:round;stroke-miterlimit:4;stroke-dasharray:none;stroke-opacity:1"
       d="M 9.2077692,53.500964 C 8.5241284,53.078683 8.2736182,52.700236 8.2131949,51.998458 8.1459742,51.21773 8.4732108,50.592442 9.1719802,50.166398 9.6122233,49.897978 9.892271,49.891951 21.948121,49.891447 l 12.326031,-5.17e-4 5.53e-4,-7.077973 c 5.52e-4,-6.819117 0.01055,-7.094435 0.274951,-7.528083 0.15094,-0.24756 0.476984,-0.573605 0.724544,-0.724544 0.440303,-0.268456 0.72047,-0.274446 12.858849,-0.274951 13.679461,-5.7e-4 13.004296,-0.04272 13.64112,0.851618 0.633112,0.889123 0.390545,2.069662 -0.555053,2.701362 l -0.469307,0.313494 -11.304333,0 -11.304334,0 -2.76e-4,7.008919 c -2.76e-4,7.813012 0.02037,7.633784 -0.95243,8.283655 L 36.719227,53.75792 23.170659,53.757368 C 10.221771,53.756911 9.603751,53.74556 9.2077692,53.500964 Z"
       id="path4235"
       inkscape:connector-curvature="0"
       transform="translate(0,980.36216)" />
  </g>
</svg>
